[img]http://img825.imageshack.us/img825/4835/thetruthr501ecopy.jpg[/img]
[code]

The Truth DVDRiP AC3-MAGNET 

*****************************************************

*****************************************************
TiTLE...... The Truth
YEAR....... 2010                                 
GENRE...... Thriller  
RUNTiME.... 1h 36mn     
IMDB.... http://www.imdb.com/title/tt1315419/
Language... English                                                                          
              
Video
ID                               : 1
Format                           : MPEG-4 Visual
Format profile                   : Simple@L1
Format settings, BVOP            : No
Format settings, QPel            : No
Format settings, GMC             : No warppoints
Format settings, Matrix          : Default (H.263)
Codec ID                         : 20
Duration                         : 1h 36mn
Bit rate mode                    : Variable
Bit rate                         : 658 Kbps
Maximum bit rate                 : 8 374 Kbps
Width                            : 716 pixels
Height                           : 366 pixels
Display aspect ratio             : 2.35:1
Original display aspect ratio    : 2.35:1
Frame rate mode                  : Variable
Frame rate                       : 23.976 fps
Minimum frame rate               : 23.974 fps
Maximum frame rate               : 23.981 fps
Color space                      : YUV
Chroma subsampling               : 4:2:0
Bit depth                        : 8 bits
Scan type                        : Progressive
Bits/(Pixel*Frame)               : 0.105
Stream size                      : 454 MiB (74%)
Writing library                  : Lavc52.66.0
Encoded date                     : UTC 2010-08-25 16:35:41
Tagged date                      : UTC 2010-08-25 16:55:09

Audio
ID                               : 2
Format                           : AC-3
Format/Info                      : Audio Coding 3
Mode extension                   : CM (complete main)
Codec ID                         : ac-3
Duration                         : 1h 36mn
Bit rate mode                    : Constant
Bit rate                         : 224 Kbps
Channel(s)                       : 6 channels
Channel positions                : Front: L C R, Side: L R, LFE
Sampling rate                    : 48.0 KHz
Bit depth                        : 16 bits
Stream size                      : 154 MiB (25%)
Language                         : English
Encoded date                     : UTC 2010-08-25 16:35:41
Tagged date                      : UTC 2010-08-25 16:55:08
                
****************************************************                                
Looking for these,syncers,cammers,silver supplier.....Have anything to offer?
Contact -  magnet@madsolutions.eu          

*****************************************************

*****************************************************

*****************************************************
John Heard	... Jonathan Davenport
Brendan Sexton III	... Gabriel Doyle
Erin Cardillo	... Dana Davenport
Daniel Baldwin	... Gabriel's Father
Erica Shaffer	... Gabriel's Mother
Carter MacIntyre	... Young Jonathan
Jacob Ochsner	... Young Gabriel
Chic Daniel	... Veteran Cop

When a couple is taken hostage in their home by an intruder, a simple home invasion robbery turns into something much more complicated. The wife may, or may not, know the intruder; and the intruder may, or may not, have previously crossed paths with the husband. Can a couple survive once they have been exposed to each other for who (and for what) they really are? Is the intruder actually there just to rob them? What are they each trying to hide from him and from each other?
[/code]
Screens:
[img]http://img535.imageshack.us/img535/4980/thetruthdvdripac3magnet.png[/img]
[img]http://img832.imageshack.us/img832/4980/thetruthdvdripac3magnet.png[/img]
[img]http://img832.imageshack.us/img832/6263/thetruthdvdripac3magnetw.png[/img]
[img]http://img338.imageshack.us/img338/4980/thetruthdvdripac3magnet.png[/img]